<svg width="32" height="32" viewBox="0 0 32 32" xmlns="http://www.w3.org/2000/svg">
  <!-- Background circle -->
  <circle cx="16" cy="16" r="15" fill="#667eea"/>
  
  <!-- Dividing line -->
  <line x1="16" y1="2" x2="16" y2="30" stroke="#5a6fd8" stroke-width="0.5" opacity="0.3"/>
  
  <!-- LEFT SIDE - MALE -->
  <path d="M16 7 Q12 7 12 12 Q12 16 16 16 L16 7" fill="#fdbcb4"/>
  <path d="M12 9 Q12 7 14 6.5 Q16 6 16 7 L16 9" fill="#8b4513"/>
  <circle cx="14" cy="11" r="0.5" fill="#000"/>
  <path d="M13 13 Q14.5 14 16 13" stroke="#000" stroke-width="0.3" fill="none"/>
  
  <!-- RIGHT SIDE - FEMALE -->
  <path d="M16 7 Q20 7 20 12 Q20 16 16 16 L16 7" fill="#fdbcb4"/>
  <path d="M20 9 Q20 6.5 18 6 Q16 5.5 16 7 L16 9.5" fill="#8b4513"/>
  <circle cx="18" cy="11" r="0.5" fill="#000"/>
  <path d="M17.5 10.5 L17 9.5 M18 10 L18 9 M18.5 10.5 L19 9.5" stroke="#000" stroke-width="0.2"/>
  <path d="M16 13 Q17.5 14 19 13" stroke="#c0392b" stroke-width="0.3" fill="none"/>
  
  <!-- Shared body -->
  <rect x="10" y="16" width="12" height="14" fill="#2c3e50"/>
  <rect x="13" y="16" width="6" height="14" fill="#fff"/>
  
  <!-- Split ties -->
  <path d="M15 16 L16 16 L16 24 L15.5 25 L15 24 Z" fill="#e74c3c"/>
  <path d="M16 16 L17 16 L17 24 L16.5 25 L16 24 Z" fill="#9b59b6"/>
  
  <!-- Small "J" at bottom -->
  <text x="16" y="30" text-anchor="middle" font-family="Arial, sans-serif" font-size="3" font-weight="bold" fill="#fff">J</text>
</svg>